<svg id="Capa_1" data-name="Capa 1" xmlns="http://www.w3.org/2000/svg" viewBox="0 0 32 34"><defs><style>.cls-1{fill:#ffc800;}</style></defs><polygon class="cls-1" points="29.09 5.81 23.26 5.81 20.35 10.85 23.26 15.9 29.09 15.9 32 10.85 29.09 5.81"/><polygon class="cls-1" points="8.74 5.81 2.91 5.81 0 10.85 2.91 15.9 8.74 15.9 11.65 10.85 8.74 5.81"/><polygon class="cls-1" points="29.09 18.1 23.26 18.1 20.35 23.15 23.26 28.19 29.09 28.19 32 23.15 29.09 18.1"/><polygon class="cls-1" points="8.74 18.1 2.91 18.1 0 23.15 2.91 28.19 8.74 28.19 11.65 23.15 8.74 18.1"/><polygon class="cls-1" points="18.91 11.96 13.09 11.96 10.17 17 13.09 22.05 18.91 22.05 21.83 17 18.91 11.96"/><polygon class="cls-1" points="18.91 0.28 13.09 0.28 10.17 5.33 13.09 10.37 18.91 10.37 21.83 5.33 18.91 0.28"/><polygon class="cls-1" points="18.91 23.63 13.09 23.63 10.17 28.67 13.09 33.72 18.91 33.72 21.83 28.67 18.91 23.63"/></svg>